<svg width="178" height="161" viewBox="0 0 178 161" fill="none" xmlns="http://www.w3.org/2000/svg">
<path d="M143.121 69.4546C154.108 85.9849 156.78 108.502 139.345 118.061C122.033 127.554 100.063 131.273 83.5057 131.463C75.7807 131.552 68.3676 128.787 62.0308 124.382C20.9925 95.8545 16.9024 78.3423 24.9695 49.5779C38.8629 0.0396239 73.9204 13.0318 104.842 28.9465C128.275 41.0071 128.614 47.6289 143.121 69.4546Z" fill="#B48F72"/>
<path d="M132.133 45.8305C149.496 55.4964 162.217 74.3019 151.106 90.7769C140.078 107.127 122.265 120.476 107.642 128.214C100.825 131.821 92.978 132.753 85.333 131.739C35.7367 125.158 24.0514 111.466 18 82.2103C7.57942 31.8309 44.706 27.3417 79.5 27.3417C105.867 27.3417 109.213 33.0705 132.133 45.8305Z" fill="#BDA281"/>
</svg>
