<svg width="273" height="250" viewBox="0 0 273 250" fill="none" xmlns="http://www.w3.org/2000/svg">
<path d="M399.421 95.1117L467.235 86.9973C476.145 89.4091 465.73 93.2197 461.903 94.1732C382.725 114.097 292.373 122.582 211.204 133.654C154.753 141.338 95.6554 151.632 39.126 157.048C34.8985 157.451 22.0848 159.359 22.5086 153.877L386.805 97.1424C382.645 77.649 376.866 60.3836 365.116 44.0148C286.817 -65.1164 115.867 0.502247 83.634 115.201L79.3779 137.796C78.5647 90.7862 111.987 43.1207 148.661 15.3768C202.618 -25.3936 280.514 -37.7266 339.428 -0.0203881C370.336 19.8211 398.201 57.9444 399.421 95.1117Z" fill="#FBF8F1" fill-opacity="0.1"/>
<path d="M239.443 202.216C270.239 196.533 307.974 188.924 338.767 187.473C354.552 186.741 353.87 199.828 339.908 202.333C312.204 207.332 282.848 208.184 254.946 212.096C224.163 213.611 189.186 227.122 159.333 228.469C148.8 228.944 147.385 224.19 157.02 220.239C176.69 212.186 217.157 206.34 239.443 202.216Z" fill="#FBF8F1" fill-opacity="0.1"/>
<path d="M387.757 142.815C389.264 145.932 385.011 146.865 382.703 147.447C356.871 153.708 326.195 157.114 299.653 161.732C257.214 169.139 215.008 174.69 172.269 180.522C156.45 182.684 138.58 187.296 123.036 188.275C119.868 188.489 115.015 189.012 113.013 185.995C124.926 180.172 138.312 180.015 151.112 177.473C194.671 168.882 239.361 161.778 283.212 155.398C317.997 150.446 352.779 145.89 387.757 142.815Z" fill="#FBF8F1" fill-opacity="0.1"/>
</svg>
