<svg width="1438" height="352" viewBox="0 0 1438 352" fill="none" xmlns="http://www.w3.org/2000/svg">
<mask id="mask0_156_831" style="mask-type:alpha" maskUnits="userSpaceOnUse" x="-2" y="0" width="1440" height="352">
<path d="M-2 0H1438V352H-2V0Z" fill="#FBF8F1"/>
</mask>
<g mask="url(#mask0_156_831)">
<g filter="url(#filter0_f_156_831)">
<path d="M206.442 139.929C208.598 145.051 184.886 162.964 180.301 167.592C101.09 247.534 70.4368 338.873 108.892 446.209C161.353 592.698 294.935 651.756 441.868 622.414C461.71 618.435 465.66 633.504 446.366 639.608C434.429 643.384 421.705 645.519 411.138 647.127C308.482 662.646 195.177 616.521 133.836 532.351C46.1291 412.03 53.9911 251.863 174.205 154.799C178.171 151.537 202.955 131.875 206.442 139.929Z" fill="#B69F8D" fill-opacity="0.3"/>
<path d="M-14.1411 322.817C-17.4898 332.385 -23.4515 332.909 -22.3781 322.829C-21.4643 314.247 -19.6421 304.79 -19.3812 303.594C-8.00925 254.188 27.1711 194.87 59.2134 155.849C185.161 2.32918 389.116 -17.0754 545.812 104.013C564.762 118.687 606.574 156.156 614.002 178.419C616.59 186.258 618.039 197.724 606.566 191.437C597.634 186.525 576.521 156.086 566.255 145.904C443.794 24.5141 255.786 5.39416 121.997 117.6C72.6564 158.991 21.7061 228.148 -2.86583 287.592C-7.67704 299.195 -10.1285 311.351 -14.1411 322.817Z" fill="#B69F8D" fill-opacity="0.3"/>
<path d="M439.668 166.119C571.022 239.779 618.766 399.011 486.475 500.816C460.222 520.987 383.766 562.017 350.916 552.416C334.224 547.548 339.04 538.605 352.837 535.386C377.516 529.77 393.912 530.66 419.409 519.654C578.852 450.355 586.743 301.363 459.109 195.12C441.668 180.563 423.2 170.278 404.181 158.528C401.575 156.918 398.866 153.49 401.649 152.209C407.802 149.419 433.277 162.58 439.668 166.119Z" fill="#B69F8D" fill-opacity="0.3"/>
<path d="M629.381 254.417C638.329 256.641 645.626 281.934 647.492 290.814C663.215 367.084 638.389 463.727 588.493 523.494C579.398 534.35 566.541 548.685 551.917 551.752C547.877 552.599 543.793 549.465 545.225 545.595C549.884 533.022 570.899 517.527 580.018 505.28C627.273 441.791 642.502 361.447 629.179 284.592C628.403 280.876 617.052 251.316 629.381 254.417Z" fill="#B69F8D" fill-opacity="0.3"/>
<path d="M383.773 293.328C410.598 306.165 424.044 344.492 411.415 371.398C379.192 440.401 286.419 438.612 262.795 364.059C239.17 289.506 331.05 268.148 383.773 293.328ZM350.38 290.384C338.413 285.751 308.12 291.545 296.69 297.377C234.436 330.362 287.047 425.368 351.01 407.077C390.884 395.664 418.55 348.276 385.282 314.951C378.167 307.938 359.349 293.867 350.38 290.384Z" fill="#B69F8D" fill-opacity="0.3"/>
<path d="M385.006 210.783C399.484 218.691 413.197 230.05 419.915 245.267C425.395 257.404 406.217 247.928 401.177 244.791C391.631 238.653 382.828 229.828 371.918 223.955C327.378 200.092 262.912 217.956 226.099 248.981C221.203 253.046 206.854 269.714 204.821 270.535C204.346 270.772 203.824 270.901 203.292 270.914C202.761 270.927 202.234 270.823 201.747 270.609C201.261 270.395 200.827 270.077 200.477 269.677C199.782 268.882 199.414 267.827 199.295 266.777C198.174 256.896 223.17 235.264 229.89 230.091C274.72 195.555 333.54 182.519 385.006 210.783Z" fill="#B69F8D" fill-opacity="0.3"/>
</g>
</g>
<defs>
<filter id="filter0_f_156_831" x="-28.5056" y="19.2219" width="686.69" height="636.884" filterUnits="userSpaceOnUse" color-interpolation-filters="sRGB">
<feFlood flood-opacity="0" result="BackgroundImageFix"/>
<feBlend mode="normal" in="SourceGraphic" in2="BackgroundImageFix" result="shape"/>
<feGaussianBlur stdDeviation="3" result="effect1_foregroundBlur_156_831"/>
</filter>
</defs>
</svg>
