<svg width="247" height="262" viewBox="0 0 247 262" fill="none" xmlns="http://www.w3.org/2000/svg">
<path d="M116.689 248.295L236.359 251.677C236.773 253.382 234.597 253.371 233.498 253.424C172.063 256.262 110.005 252.558 48.5061 251.477C34.6951 251.242 20.1021 252.677 6.34157 250.908C5.66784 250.878 0.167075 249.709 1.16856 248.808C9.34417 247.479 17.5443 248.666 25.7289 248.671C46.3521 248.649 67.185 248.078 87.8001 248.241C94.1267 248.283 100.475 249.371 106.759 248.466L95.5181 246.572C66.2464 240.629 38.4201 220.219 20.8793 196.548C18.6331 193.513 10.5606 181.734 10.5092 178.677C10.4327 174.269 16.5671 171.771 19.9262 170.214C42.6602 159.787 71.9473 151.927 96.1118 144.28C125.616 134.944 156.404 124.803 186.13 116.557C196.022 113.802 217.438 106.473 222.342 119.7C227.033 132.394 218.111 165.332 212.773 178.125C196.614 216.753 159.184 246.347 116.689 248.295ZM15.0293 174.893C23.033 186.703 30.5086 198.625 40.8696 208.632C111.596 277.047 207.191 227.985 216.021 136.821C217.595 120.588 216.884 117.165 200.229 120.214C196.129 120.962 191.701 122.269 187.588 123.304C130.39 137.668 73.9484 156.318 17.8688 174.41C16.9587 174.739 15.997 174.903 15.0293 174.893Z" fill="#B69F8D"/>
<path d="M25.7405 53.1821C28.2343 55.958 29.892 68.5527 31.0648 72.9751C49.5481 142.049 132.86 146.366 168.936 88.0579C169.881 86.5131 173.064 81.6745 171.948 80.1911C170.545 78.3237 161.297 76.787 158.621 76.2307C122.988 69.8732 87.0247 65.6781 51.5384 58.2977C48.2944 57.6152 29.6721 53.9623 28.7097 52.435C28.3006 51.7588 29.0184 51.5541 29.4682 51.3038C56.3832 55.574 83.1916 60.734 110.154 64.7025C131.465 67.8322 153.498 69.1541 174.226 74.4183C182.958 79.2569 177.236 88.5068 173.125 94.5028C140.527 142.011 73.5872 153.399 37.373 103.409C30.674 94.1708 19.9734 69.9904 21.4253 58.8317C21.6729 57.0369 23.4077 50.5821 25.7405 53.1821Z" fill="#B69F8D"/>
<path d="M60.2384 3.14174C63.3883 2.83413 66.5678 3.18001 69.5779 4.15778C72.588 5.13554 75.3639 6.72409 77.7318 8.82404C80.0997 10.924 82.0086 13.4901 83.3391 16.3618C84.6696 19.2334 85.393 22.3488 85.4641 25.513C86.5668 53.0521 49.9454 65.7546 43.8164 33.9277C43.0338 29.8431 43.6911 27.1719 43.3001 23.7795C43.1046 22.0834 41.7444 20.7748 41.6916 19.2875C41.498 11.398 53.2238 3.77875 60.2384 3.14174ZM62.4521 9.98927C59.8812 10.1626 57.3872 10.9386 55.1717 12.2543C52.9562 13.5701 51.0814 15.3888 49.699 17.5633C49.2622 18.2867 46.4483 23.9515 46.3815 24.3199C45.0939 31.3512 50.6556 45.7374 58.77 46.9544C71.998 48.9359 80.6578 33.8917 77.8404 22.343C77.0157 18.869 75.0527 15.7707 72.2638 13.5412C69.4748 11.3117 66.0203 10.0792 62.4499 10.0398L62.4521 9.98927Z" fill="#B69F8D"/>
</svg>
