<svg width="151" height="60" viewBox="0 0 151 60" fill="none" xmlns="http://www.w3.org/2000/svg">
<g clip-path="url(#clip0_156_85)">
<path d="M44.0047 49.5519C44.0412 50.8791 43.7435 52.1941 43.1391 53.3755C42.5782 54.4167 41.7872 55.3154 40.8266 56.0031C39.818 56.7109 38.6853 57.2218 37.4878 57.509C36.1767 57.8313 34.8312 57.9916 33.4812 57.9862C31.599 57.9823 29.7263 57.7175 27.9165 57.1991C26.1416 56.7152 24.4507 55.9629 22.9021 54.9682L24.8436 51.7829C25.9202 53.6119 27.4743 55.1117 29.3386 56.1208C30.9229 56.9847 32.6919 57.4524 34.4952 57.4842C35.348 57.4886 36.1965 57.3632 37.0117 57.1124C37.7708 56.886 38.4786 56.5134 39.0954 56.0155C39.6847 55.5399 40.1636 54.9415 40.4989 54.2617C40.8577 53.5121 41.0356 52.6885 41.0183 51.8573C41.0448 50.5368 40.6071 49.2491 39.7817 48.2196C38.8918 47.1498 37.8502 46.2165 36.6902 45.4495C35.4088 44.5891 34.0793 43.8029 32.7083 43.0946C31.3338 42.3837 30.004 41.589 28.7265 40.7149C27.572 39.9407 26.5314 39.0083 25.635 37.9448C24.8111 36.9385 24.3726 35.6706 24.3984 34.3691C24.3781 33.3632 24.6441 32.3723 25.1651 31.5123C25.6791 30.6818 26.3694 29.9751 27.1869 29.4425C28.0861 28.8689 29.0745 28.45 30.1115 28.203C31.2533 27.9269 32.4241 27.7896 33.5987 27.794C34.9424 27.7949 36.2805 27.9677 37.5805 28.3084C38.8902 28.6488 40.1409 29.1857 41.2903 29.901L39.7631 32.6711C38.6256 31.3705 37.2537 30.2962 35.7195 29.5044C34.4473 28.8264 33.0357 28.4531 31.5954 28.4138C30.4345 28.3764 29.3013 28.7741 28.4173 29.5292C27.5641 30.2729 27.1375 31.4297 27.1375 32.9996C27.1464 33.5247 27.2605 34.0426 27.4729 34.5227C27.6853 35.0028 27.9918 35.4353 28.3741 35.7944C29.3081 36.724 30.3454 37.5433 31.4656 38.2361C32.7022 39.0169 34.0583 39.7957 35.534 40.5724C36.9382 41.3131 38.2949 42.141 39.5962 43.0512C40.7597 43.8625 41.8008 44.8371 42.6877 45.9452C43.5017 46.9667 43.9385 48.2386 43.9243 49.5457" fill="#806145"/>
<path d="M129.206 57.447H109.934C110.262 57.447 110.509 57.0814 110.676 56.3563C110.865 55.4561 110.983 54.5423 111.028 53.6234C111.096 52.5327 111.127 51.3677 111.127 50.1282V35.8192C111.127 34.5798 111.096 33.4148 111.028 32.3241C110.983 31.4073 110.865 30.4955 110.676 29.5974C110.511 28.8661 110.264 28.5005 109.934 28.5005H115.709C115.381 28.5005 115.134 28.8599 114.967 29.5726C114.778 30.452 114.661 31.3452 114.615 32.2435C114.547 33.3032 114.503 34.4497 114.491 35.6767C114.479 36.9037 114.491 38.013 114.491 39.0045V54.1006C114.45 54.8531 114.668 55.5969 115.109 56.2076C115.524 56.7343 116.346 57.0194 117.582 57.0752H119.938C121.721 57.0964 123.501 56.9658 125.262 56.6847C126.631 56.4533 127.962 56.0363 129.219 55.4453L129.206 57.447Z" fill="#806145"/>
<path d="M53.5699 55.6933C52.041 54.5901 50.6483 53.3086 49.4211 51.8759C48.0659 50.2608 47.0614 48.3803 46.4718 46.3543C45.4985 42.9046 45.6589 39.2325 46.9294 35.8813C48.2354 32.5542 50.706 29.818 53.8791 28.1845C58.3865 25.811 62.8815 26.0589 67.4817 28.0915C67.636 28.1787 67.7949 28.2573 67.9578 28.327C68.001 28.327 68.0814 28.3952 68.0876 28.327C65.4484 26.8477 62.453 26.1272 59.4314 26.2448C56.1483 26.5185 53.0278 27.7946 50.4908 29.9011C47.5929 32.3174 45.6648 35.7026 45.0621 39.4322C44.4115 43.0119 45.0005 46.7069 46.7315 49.9052C47.4292 51.1361 48.2585 52.2873 49.2047 53.3384C50.0848 54.416 51.128 55.3486 52.2962 56.1023C52.6089 56.289 52.938 56.4466 53.2793 56.5733C53.4143 56.6297 53.5597 56.6572 53.706 56.6538C53.7797 56.6502 53.851 56.6263 53.9121 56.5848C53.9731 56.5433 54.0216 56.4857 54.0522 56.4183C54.1635 56.1271 53.7431 55.842 53.5514 55.6933" fill="#806145"/>
<path d="M67.092 26.1518C69.2405 27.1902 71.224 28.5413 72.9782 30.1613C75.084 32.2305 76.6179 34.8121 77.43 37.6535C77.4389 37.6832 77.4539 37.7108 77.4741 37.7344C77.4942 37.758 77.519 37.7771 77.547 37.7905C77.5749 37.8039 77.6053 37.8113 77.6363 37.8123C77.6673 37.8132 77.698 37.8077 77.7268 37.7961L78.4007 37.5172C78.4507 37.4976 78.4917 37.4602 78.5157 37.4121C78.5397 37.364 78.545 37.3087 78.5306 37.2569C78.0356 35.4542 77.2593 33.7412 76.2305 32.1815C74.163 29.0577 71.2233 26.6135 67.7783 25.154C67.2246 24.9035 66.6237 24.7746 66.0162 24.776C65.9486 24.7657 65.8795 24.7753 65.8173 24.8036C65.755 24.8319 65.7024 24.8778 65.6657 24.9356C65.629 24.9934 65.6099 25.0606 65.6106 25.1291C65.6114 25.1976 65.632 25.2644 65.6699 25.3214C65.9049 25.7056 66.6777 25.9411 67.092 26.1518Z" fill="#806145"/>
<path d="M78.2648 43.1625C78.2441 43.1759 78.227 43.1943 78.2151 43.2159C78.2032 43.2375 78.1969 43.2618 78.1967 43.2865C78.1967 48.3185 76.2924 52.5821 72.1683 55.9905C67.7784 59.6529 62.7887 60.4276 57.2488 59.2749C57.0571 59.2315 56.8716 59.151 56.6737 59.1262C56.6243 59.1262 56.5253 59.0766 56.5315 59.1262C59.7707 60.1302 63.2229 60.2224 66.5109 59.3927C68.9504 58.6434 71.2064 57.3906 73.1338 55.715C75.0612 54.0393 76.6173 51.9779 77.7021 49.6633C78.6736 47.4882 79.1892 45.1364 79.217 42.7535C79.217 42.7276 79.2099 42.7021 79.1966 42.6799C79.1832 42.6576 79.164 42.6394 79.1411 42.6273C79.1182 42.6152 79.0924 42.6096 79.0666 42.6111C79.0407 42.6126 79.0157 42.6211 78.9944 42.6358L78.2648 43.1625Z" fill="#806145"/>
<path d="M82.1724 37.833C81.4465 38.9411 80.6185 39.9785 79.6992 40.9315C77.6897 42.9084 74.9321 43.8565 72.867 45.7652C72.8113 45.7032 73.003 45.4987 73.0463 45.4306C73.8361 44.3566 74.7287 43.3624 75.7112 42.4622C76.8674 41.3777 78.1844 40.5039 79.421 39.5124C79.5075 39.4504 79.421 39.3141 79.3468 39.3079C78.982 39.2335 76.5088 41.167 76.0945 41.5388C74.916 42.5401 73.8447 43.6616 72.8979 44.8852C72.6197 45.2571 72.4156 45.697 72.1065 46.0441C72.5665 44.6658 73.1544 43.3338 73.8624 42.0656C75.8039 38.967 79.4643 38.0375 82.7289 36.9034C82.577 37.2284 82.3905 37.5359 82.1724 37.8206M68.5389 50.2147L68.3163 48.6221C67.7598 45.4677 65.503 40.1631 63.7038 37.5045C63.5183 37.238 63.0855 36.7361 63.3452 37.4487C64.0253 39.2645 65.095 41.0864 65.8802 42.8836C66.956 45.3624 68.0072 48.0395 68.0628 50.7662L67.5929 49.4835C65.4969 46.0131 63.2091 42.7039 61.818 38.8431C61.1892 37.0221 60.9122 35.0977 61.0018 33.1728C61.4545 33.7741 61.9707 34.3247 62.5414 34.815C63.9264 35.9553 65.67 36.5192 66.7458 38.0313C67.902 39.6611 68.7367 43.6892 68.9531 45.7156C69.0533 47.2278 68.9135 48.7464 68.5389 50.2147ZM52.8155 45.7342C53.3905 46.0695 53.9851 46.3695 54.5962 46.6328C55.7339 47.1719 56.9087 47.6243 58.0278 48.2068C59.3829 48.9231 60.6756 49.7523 61.8922 50.6857C61.8489 50.7786 61.7005 50.6857 61.6325 50.6857C59.2768 50.066 56.3893 49.4091 54.2809 48.2068C52.5373 47.2277 51.3811 45.7838 50.2372 44.185C52.0612 44.4266 53.9099 44.501 55.7215 44.8357C58.8687 45.4244 60.4948 46.5894 62.2322 49.2356L63.3266 51.1257C61.3329 49.3789 59.0639 47.9758 56.6119 46.9736C56.1729 46.7815 52.8588 45.4182 52.7042 45.5607C52.7042 45.6846 52.7413 45.697 52.8155 45.7528M82.1106 36.5068C80.0516 37.0769 76.6881 38.4465 75.0867 39.8408C72.8114 41.8177 72.1683 44.6373 70.9812 47.2773L69.1881 50.8778C69.4685 49.2409 69.535 47.5743 69.386 45.9201C69.1695 43.9681 68.5574 40.3428 67.7598 38.6138C66.4738 35.8065 63.7718 35.4595 61.954 33.3029C61.7438 33.0488 61.1811 32.0635 60.9833 32.0077C60.9281 31.9861 60.8683 31.9794 60.8098 31.9881C60.7512 31.9967 60.6959 32.0206 60.6494 32.0573C60.5366 32.2073 60.4758 32.3901 60.4763 32.5779C60.0187 37.6285 62.158 42.1399 64.8044 46.2858C65.7813 47.8288 67.0179 49.1488 67.4569 50.9769C67.9268 52.9042 67.5063 55.0608 67.3703 57.0129L66.6283 55.1104C65.3299 53.0592 64.0562 50.9584 62.7083 48.9133C59.6848 44.3833 56.7603 44.5754 51.783 43.9928C51.1586 43.8583 50.5232 43.7816 49.8848 43.7636C49.5509 43.9309 49.9157 44.4824 50.0394 44.7117C51.3804 47.2529 53.6733 49.1565 56.414 50.004C60.3526 51.3674 63.4441 50.8716 65.9606 54.8687C66.4927 55.7027 66.942 56.5869 67.3023 57.5086C67.3517 57.9053 67.3023 58.4258 67.3023 58.903L67.834 58.6675C67.9709 56.6187 68.387 54.5983 69.0706 52.6625C70.0088 50.1388 71.5202 47.8686 73.4853 46.0317C75.5751 44.2036 78.2647 43.2244 80.2124 41.2228C81.4065 39.9679 82.4712 38.5956 83.3905 37.1265C84.0088 35.9986 82.7722 36.3395 82.1539 36.5068" fill="#806145"/>
<path d="M53.5699 55.6933C52.041 54.5901 50.6483 53.3086 49.4211 51.8759C48.0659 50.2608 47.0614 48.3803 46.4718 46.3543C45.4985 42.9046 45.6589 39.2325 46.9294 35.8813C48.2354 32.5542 50.706 29.818 53.8791 28.1845C58.3865 25.811 62.8815 26.0589 67.4817 28.0915C67.636 28.1787 67.7949 28.2573 67.9578 28.327C68.001 28.327 68.0814 28.3952 68.0876 28.327C65.4484 26.8477 62.453 26.1272 59.4314 26.2448C56.1483 26.5185 53.0278 27.7946 50.4908 29.9011C47.5929 32.3174 45.6648 35.7026 45.0621 39.4322C44.4115 43.0119 45.0005 46.7069 46.7315 49.9052C47.4292 51.1361 48.2585 52.2873 49.2047 53.3384C50.0848 54.416 51.128 55.3486 52.2962 56.1023C52.6089 56.289 52.938 56.4466 53.2793 56.5733C53.4143 56.6297 53.5597 56.6572 53.706 56.6538C53.7797 56.6502 53.851 56.6263 53.9121 56.5848C53.9731 56.5433 54.0216 56.4857 54.0522 56.4183C54.1635 56.1271 53.7431 55.842 53.5514 55.6933" fill="#806145"/>
<path d="M67.092 26.1518C69.2405 27.1902 71.224 28.5413 72.9782 30.1613C75.084 32.2305 76.6179 34.8121 77.43 37.6535C77.4389 37.6832 77.4539 37.7108 77.4741 37.7344C77.4942 37.758 77.519 37.7771 77.547 37.7905C77.5749 37.8039 77.6053 37.8113 77.6363 37.8123C77.6673 37.8132 77.698 37.8077 77.7268 37.7961L78.4007 37.5172C78.4507 37.4976 78.4917 37.4602 78.5157 37.4121C78.5397 37.364 78.545 37.3087 78.5306 37.2569C78.0356 35.4542 77.2593 33.7412 76.2305 32.1815C74.163 29.0577 71.2233 26.6135 67.7783 25.154C67.2246 24.9035 66.6237 24.7746 66.0162 24.776C65.9486 24.7657 65.8795 24.7753 65.8173 24.8036C65.755 24.8319 65.7024 24.8778 65.6657 24.9356C65.629 24.9934 65.6099 25.0606 65.6106 25.1291C65.6114 25.1976 65.632 25.2644 65.6699 25.3214C65.9049 25.7056 66.6777 25.9411 67.092 26.1518Z" fill="#806145"/>
<path d="M103.541 28.5005C103.456 28.4996 103.372 28.5188 103.296 28.5566C103.22 28.5944 103.154 28.6497 103.103 28.718C103.053 28.7863 103.019 28.8657 103.005 28.9496C102.99 29.0335 102.996 29.1196 103.022 29.2008C103.068 29.3301 103.106 29.4626 103.133 29.5974C103.319 30.4961 103.437 31.4076 103.485 32.3241C103.553 33.4148 103.59 34.5798 103.609 35.8193C103.628 37.0587 103.609 38.1803 103.609 39.1719V48.2692C103.631 49.5541 103.356 50.8267 102.805 51.9874C102.294 53.0406 101.562 53.9707 100.66 54.7141C99.7617 55.4462 98.7426 56.0146 97.6486 56.3935C96.5528 56.7741 95.4014 56.9689 94.2417 56.9699C93.1699 56.9689 92.1052 56.7953 91.0884 56.4555C90.0434 56.1142 89.0848 55.5495 88.2788 54.8005C87.4728 54.0516 86.8387 53.1362 86.4202 52.1176C85.9185 50.8852 85.6744 49.5627 85.703 48.232V39.0046C85.703 38.013 85.703 36.9038 85.703 35.6767C85.703 34.4373 85.7587 33.3033 85.8267 32.2436C85.8727 31.3452 85.9905 30.4521 86.1791 29.5726C86.21 29.4363 86.2471 29.3061 86.2842 29.1946C86.3082 29.1143 86.3133 29.0294 86.2988 28.9468C86.2844 28.8642 86.251 28.786 86.2011 28.7187C86.1513 28.6513 86.0865 28.5965 86.0118 28.5586C85.9371 28.5207 85.8547 28.5008 85.771 28.5005H82.2962C82.2112 28.4996 82.1273 28.5188 82.0512 28.5566C81.9752 28.5944 81.9091 28.6497 81.8584 28.718C81.8077 28.7863 81.7739 28.8657 81.7597 28.9496C81.7456 29.0335 81.7514 29.1196 81.7768 29.2008C81.8186 29.3311 81.8536 29.4635 81.8819 29.5974C82.0709 30.4956 82.1888 31.4073 82.2343 32.3241C82.2962 33.359 82.3271 34.3939 82.3518 35.4227C82.3522 35.4817 82.365 35.54 82.3896 35.5936C82.4142 35.6472 82.45 35.695 82.4944 35.7337C82.5389 35.7724 82.5911 35.8012 82.6475 35.8181C82.704 35.835 82.7634 35.8396 82.8217 35.8317C82.8979 35.8255 82.9744 35.8255 83.0505 35.8317C83.2108 35.8152 83.3724 35.8435 83.5176 35.9135C83.6627 35.9835 83.7857 36.0925 83.8728 36.2283C83.9475 36.4159 83.9753 36.6191 83.9538 36.82C83.9322 37.0209 83.862 37.2135 83.7492 37.3809C83.3804 38.0167 82.9672 38.6255 82.5126 39.2029C82.4295 39.3161 82.384 39.4527 82.3827 39.5933V48.2692C82.3506 49.7499 82.6684 51.2173 83.3102 52.5513C83.9029 53.738 84.7469 54.7807 85.7834 55.6065C86.819 56.4401 88.0021 57.0708 89.2706 57.4656C91.8869 58.2893 94.6922 58.2893 97.3085 57.4656C98.5816 57.0682 99.7702 56.4379 100.814 55.6065C101.855 54.7847 102.7 53.7411 103.287 52.5513C103.928 51.218 104.234 49.748 104.178 48.2692V39.1719C104.178 38.1803 104.178 37.0587 104.178 35.8193C104.178 34.5798 104.233 33.4148 104.301 32.3241C104.347 31.4073 104.465 30.4956 104.654 29.5974C104.682 29.4635 104.717 29.3311 104.759 29.2008C104.784 29.1196 104.79 29.0335 104.776 28.9496C104.762 28.8657 104.728 28.7863 104.677 28.718C104.627 28.6497 104.561 28.5944 104.485 28.5566C104.408 28.5188 104.325 28.4996 104.24 28.5005H103.541Z" fill="#806145"/>
<path d="M82.1724 37.833C81.4465 38.9411 80.6185 39.9785 79.6992 40.9315C77.6897 42.9084 74.9321 43.8565 72.867 45.7652C72.8113 45.7032 73.003 45.4987 73.0463 45.4306C73.8361 44.3566 74.7287 43.3624 75.7112 42.4622C76.8674 41.3777 78.1844 40.5039 79.421 39.5124C79.5075 39.4504 79.421 39.3141 79.3468 39.3079C78.982 39.2335 76.5088 41.167 76.0945 41.5388C74.916 42.5401 73.8447 43.6616 72.8979 44.8852C72.6197 45.2571 72.4156 45.697 72.1065 46.0441C72.5665 44.6658 73.1544 43.3338 73.8624 42.0656C75.8039 38.967 79.4643 38.0375 82.7289 36.9034C82.577 37.2284 82.3905 37.5359 82.1724 37.8206M68.5389 50.2147L68.3163 48.6221C67.7598 45.4677 65.503 40.1631 63.7038 37.5045C63.5183 37.238 63.0855 36.7361 63.3452 37.4487C64.0253 39.2645 65.095 41.0864 65.8802 42.8836C66.956 45.3624 68.0072 48.0395 68.0628 50.7662L67.5929 49.4835C65.4969 46.0131 63.2091 42.7039 61.818 38.8431C61.1892 37.0221 60.9122 35.0977 61.0018 33.1728C61.4545 33.7741 61.9707 34.3247 62.5414 34.815C63.9264 35.9553 65.67 36.5192 66.7458 38.0313C67.902 39.6611 68.7367 43.6892 68.9531 45.7156C69.0533 47.2278 68.9135 48.7464 68.5389 50.2147ZM52.8155 45.7342C53.3905 46.0695 53.9851 46.3695 54.5962 46.6328C55.7339 47.1719 56.9087 47.6243 58.0278 48.2068C59.3829 48.9231 60.6756 49.7523 61.8922 50.6857C61.8489 50.7786 61.7005 50.6857 61.6325 50.6857C59.2768 50.066 56.3893 49.4091 54.2809 48.2068C52.5373 47.2277 51.3811 45.7838 50.2372 44.185C52.0612 44.4266 53.9099 44.501 55.7215 44.8357C58.8687 45.4244 60.4948 46.5832 62.2322 49.2356L63.3266 51.1257C61.3329 49.3789 59.0639 47.9758 56.6119 46.9736C56.1729 46.7815 52.8588 45.4182 52.7042 45.5607C52.7042 45.6846 52.7413 45.697 52.8155 45.7528M82.1106 36.5068C80.0516 37.0769 76.6881 38.4465 75.0867 39.8408C72.8114 41.8177 72.1683 44.6373 70.9812 47.2773L69.1881 50.8778C69.4685 49.2409 69.535 47.5743 69.386 45.9201C69.1695 43.9681 68.5574 40.3428 67.7598 38.6138C66.4738 35.8065 63.7718 35.4595 61.954 33.3029C61.7438 33.0488 61.1811 32.0635 60.9833 32.0077C60.9281 31.9861 60.8683 31.9794 60.8098 31.9881C60.7512 31.9967 60.6959 32.0206 60.6494 32.0573C60.5366 32.2073 60.4758 32.3901 60.4763 32.5779C60.0187 37.6285 62.158 42.1399 64.8044 46.2858C65.7813 47.8288 67.0179 49.1488 67.4569 50.9769C67.9268 52.9042 67.5063 55.0608 67.3703 57.0129L66.6283 55.1104C65.3299 53.0592 64.0562 50.9584 62.7083 48.9133C59.6848 44.3833 56.7603 44.5754 51.783 43.9928C51.1586 43.8583 50.5232 43.7816 49.8848 43.7636C49.5509 43.9309 49.9157 44.4824 50.0394 44.7117C51.3804 47.2529 53.6733 49.1565 56.414 50.004C60.3526 51.3674 63.4441 50.8716 65.9606 54.8687C66.4927 55.7027 66.942 56.5869 67.3023 57.5086C67.3517 57.8929 67.3023 58.3886 67.3023 58.8534C64.0801 59.9225 60.6244 60.0706 57.3229 59.281C57.1313 59.2376 56.9458 59.1571 56.7479 59.1323C56.6985 59.1323 56.5995 59.0827 56.6119 59.1323C59.8489 60.1364 63.2992 60.2286 66.5851 59.3988C69.0245 58.6495 71.2805 57.3967 73.2079 55.7211C75.1354 54.0454 76.6915 51.984 77.7763 49.6694C78.7478 47.4943 79.2634 45.1425 79.2911 42.7596C79.2912 42.7337 79.2841 42.7082 79.2708 42.6859C79.2574 42.6637 79.2382 42.6455 79.2153 42.6334C79.1924 42.6213 79.1666 42.6157 79.1407 42.6172C79.1149 42.6187 79.0899 42.6272 79.0685 42.6419L78.339 43.1376C78.3181 43.1504 78.3011 43.1688 78.2902 43.1907C78.2793 43.2126 78.2747 43.2372 78.2771 43.2616C78.2771 48.2936 76.3666 52.5572 72.2425 55.9656C70.9241 57.082 69.4357 57.9796 67.834 58.6241C67.9745 56.5798 68.3905 54.564 69.0706 52.6316C70.0088 50.1078 71.5202 47.8376 73.4853 46.0007C75.5751 44.1726 78.2647 43.1934 80.2124 41.1918C81.4065 39.9369 82.4712 38.5646 83.3905 37.0955C84.0088 35.9676 82.7722 36.3085 82.1539 36.4758" fill="#806145"/>
<path d="M16.8926 0C16.6762 0 16.5155 0.260264 16.398 0.780817C16.2635 1.41981 16.1787 2.06833 16.1445 2.7205C16.095 3.49514 16.0641 4.32554 16.058 5.19933C16.0518 6.07311 16.058 6.87874 16.058 7.5852V21.0452H15.7612L1.9669 1.93968V13.02C1.9669 13.7265 1.9669 14.5197 1.9669 15.4059C1.9669 16.2921 2.00399 17.1163 2.05345 17.8847C2.08727 18.539 2.17203 19.1896 2.30695 19.8306C2.42443 20.3512 2.59138 20.6114 2.80161 20.6114H0.687012C0.921966 20.6114 1.10128 20.3512 1.21876 19.8306C1.35126 19.1894 1.43394 18.5388 1.46608 17.8847C1.51554 17.1101 1.54027 16.2797 1.54027 15.4059V5.22412C1.54027 4.34001 1.51554 3.51373 1.46608 2.7453C1.4336 2.09332 1.35092 1.44482 1.21876 0.805611C1.10128 0.285057 0.921966 0.0247746 0.687012 0.0247746H3.71668L15.6189 16.5462V7.62238C15.6189 6.91592 15.6189 6.12269 15.6189 5.23651C15.6189 4.35033 15.5757 3.51992 15.5262 2.75768C15.4937 2.1057 15.4111 1.45723 15.2789 0.818017C15.1594 0.297464 14.9924 0.0371809 14.7781 0.0371809L16.8926 0Z" fill="#806145"/>
<path d="M36.5297 14.0796C36.574 15.0789 36.3794 16.0744 35.9621 16.9831C35.5448 17.8919 34.9169 18.6875 34.1306 19.3037C33.3923 19.8879 32.5543 20.333 31.6575 20.6175C29.7918 21.2043 27.7915 21.2043 25.9258 20.6175C25.0276 20.3363 24.1891 19.8908 23.4526 19.3037C22.7159 18.7173 22.1183 17.9744 21.7028 17.1285C21.243 16.1796 21.0162 15.1342 21.0413 14.0796V7.59741C21.0413 6.89095 21.0413 6.09774 21.0413 5.21156C21.0413 4.32538 21.0041 3.49497 20.9547 2.73273C20.9222 2.08075 20.8395 1.43226 20.7074 0.793044C20.5919 0.27249 20.425 0.012207 20.2065 0.012207H24.2935C24.075 0.012207 23.9081 0.266294 23.7927 0.774453C23.6587 1.401 23.5739 2.03712 23.5392 2.67696C23.4959 3.433 23.465 4.2448 23.4526 5.11858C23.4403 5.99237 23.4526 6.78561 23.4526 7.49207V14.0919C23.4326 15.0408 23.6072 15.9836 23.9658 16.862C24.2754 17.6004 24.7417 18.2623 25.3323 18.8017C25.8963 19.3139 26.5622 19.7004 27.2861 19.9358C28.011 20.182 28.7713 20.3076 29.5367 20.3076C30.3623 20.3082 31.1819 20.1678 31.9604 19.8924C32.7404 19.6266 33.4669 19.2237 34.1059 18.7026C34.7489 18.1718 35.2699 17.508 35.6331 16.7567C36.0287 15.9252 36.2255 15.0129 36.2081 14.0919V7.59741C36.2081 6.89095 36.2081 6.09774 36.2081 5.21156C36.2081 4.32538 36.171 3.49497 36.1216 2.73273C36.0891 2.08075 36.0064 1.43226 35.8743 0.793044C35.7568 0.27249 35.5775 0.012207 35.3425 0.012207H37.4633C37.2448 0.012207 37.0779 0.27249 36.9625 0.793044C36.8279 1.43204 36.7432 2.08056 36.709 2.73273C36.6595 3.50736 36.6348 4.33777 36.6224 5.21156C36.61 6.08534 36.6224 6.89095 36.6224 7.59741L36.5297 14.0796Z" fill="#806145"/>
<path d="M43.875 13.0201C43.875 13.7266 43.875 14.5198 43.875 15.406C43.875 16.2922 43.9183 17.1164 43.9677 17.8848C43.9998 18.5389 44.0825 19.1894 44.215 19.8307C44.3325 20.3512 44.5118 20.6115 44.7468 20.6115H40.6289C40.8639 20.6115 41.0432 20.3574 41.1606 19.8431C41.2927 19.2185 41.3754 18.5844 41.408 17.9468C41.4574 17.1907 41.4883 16.3727 41.4945 15.4679C41.5007 14.5632 41.4945 13.8071 41.4945 13.1007V7.44274L41.4636 7.56048V5.22419C41.4636 4.34008 41.4389 3.5138 41.3894 2.74537C41.3569 2.09339 41.2742 1.44489 41.1421 0.805683C41.0246 0.285129 40.8453 0.0248465 40.6104 0.0248465H48.5184C49.5881 0.00308325 50.6555 0.130315 51.6903 0.402877C52.4725 0.612366 53.21 0.963082 53.8667 1.4378C54.3792 1.80707 54.796 2.29404 55.0822 2.85793C55.3683 3.42183 55.5155 4.04622 55.5114 4.67885C55.5225 5.3256 55.3715 5.96482 55.0724 6.53797C54.7791 7.06361 54.401 7.53688 53.9533 7.93851C53.5086 8.33791 53.0261 8.69283 52.5126 8.99821C52.0056 9.30186 51.5233 9.58073 51.072 9.83481C50.6769 10.054 50.3041 10.3113 49.959 10.6032C49.8262 10.7033 49.7177 10.8323 49.6417 10.9804C49.5656 11.1285 49.5241 11.2919 49.5201 11.4584C49.5732 11.9251 49.7434 12.3707 50.0147 12.7536C50.4052 13.3808 50.8369 13.9811 51.3069 14.5508C51.8387 15.1953 52.4364 15.8584 53.1 16.54C53.7636 17.2217 54.4396 17.8414 55.128 18.3992C55.7562 18.9345 56.4192 19.4272 57.1128 19.8741C57.6071 20.2141 58.1609 20.4579 58.7451 20.5929H53.9842C53.2373 20.0028 52.5442 19.3475 51.9129 18.6347C51.2835 17.9339 50.703 17.1906 50.1755 16.4099C49.7107 15.7206 49.3092 14.9905 48.9759 14.2285C48.701 13.6567 48.5453 13.0346 48.5184 12.4004C48.5238 12.1192 48.5895 11.8425 48.7111 11.5891C48.8328 11.3356 49.0074 11.1114 49.2233 10.9317L50.769 9.51876C51.3491 8.97727 51.8619 8.36762 52.2962 7.70302C52.7828 6.90233 53.0217 5.97501 52.9825 5.03829C53.0507 3.76915 52.6476 2.51966 51.851 1.53075C51.4251 1.08202 50.9055 0.733205 50.3293 0.509295C49.7532 0.285385 49.1348 0.191921 48.5184 0.235563H43.844L43.875 13.0201Z" fill="#806145"/>
<path d="M67.8896 13.0202C67.8896 13.7267 67.8896 14.5199 67.8896 15.4061C67.8896 16.2922 67.9329 17.1165 67.9824 17.8849C68.0114 18.5392 68.0941 19.1901 68.2297 19.8308C68.3472 20.3513 68.5265 20.6116 68.7614 20.6116H64.6436C64.8785 20.6116 65.0578 20.3575 65.1753 19.8432C65.3073 19.2186 65.3901 18.5845 65.4226 17.9469C65.4721 17.1908 65.503 16.3728 65.5092 15.468C65.5154 14.5633 65.5092 13.8072 65.5092 13.1008V0.266633C64.2673 0.249681 63.0262 0.338824 61.7994 0.533102C60.859 0.697068 59.9442 0.984615 59.0789 1.3883V0.00634766H74.2458V1.3883C73.3822 0.985466 72.4696 0.697944 71.5314 0.533102C70.3046 0.339062 69.0635 0.249921 67.8216 0.266633L67.8896 13.0202Z" fill="#806145"/>
<path d="M93.3143 14.0796C93.3586 15.0789 93.164 16.0744 92.7467 16.9831C92.3294 17.8919 91.7015 18.6875 90.9153 19.3037C90.1769 19.8879 89.3389 20.333 88.4421 20.6175C86.5764 21.2043 84.5761 21.2043 82.7104 20.6175C81.813 20.3343 80.9748 19.8891 80.2372 19.3037C79.5041 18.7154 78.9089 17.9728 78.4936 17.1285C78.0338 16.1796 77.807 15.1342 77.832 14.0796V7.59741C77.832 6.89095 77.832 6.09774 77.832 5.21156C77.832 4.32538 77.7949 3.49497 77.7455 2.73273C77.713 2.08075 77.6303 1.43226 77.4981 0.793044C77.3786 0.27249 77.2117 0.012207 76.9973 0.012207H81.0843C80.8658 0.012207 80.6989 0.266294 80.5835 0.774453C80.4495 1.401 80.3647 2.03712 80.33 2.67696C80.2805 3.433 80.2558 4.2448 80.2434 5.11858C80.231 5.99237 80.2434 6.78561 80.2434 7.49207V14.0919C80.2201 15.0411 80.3949 15.9846 80.7566 16.862C81.0662 17.6004 81.5325 18.2623 82.123 18.8017C82.6871 19.3139 83.3529 19.7004 84.0769 19.9358C84.8018 20.182 85.5621 20.3076 86.3275 20.3076C87.1531 20.3082 87.9727 20.1678 88.7512 19.8924C89.5312 19.6266 90.2577 19.2237 90.8967 18.7026C91.5397 18.1718 92.0607 17.508 92.4239 16.7567C92.8194 15.9252 93.0163 15.0129 92.9989 14.0919V7.59741C92.9989 6.89095 92.9989 6.09774 92.9989 5.21156C92.9989 4.32538 92.9618 3.49497 92.9123 2.73273C92.8799 2.08075 92.7972 1.43226 92.6651 0.793044C92.5476 0.27249 92.3683 0.012207 92.1333 0.012207H94.2479C94.0377 0.012207 93.8707 0.27249 93.7533 0.793044C93.6187 1.43204 93.5339 2.08056 93.4997 2.73273C93.4503 3.50736 93.4194 4.33777 93.4132 5.21156C93.407 6.08534 93.4132 6.89095 93.4132 7.59741L93.3143 14.0796Z" fill="#806145"/>
<path d="M100.66 13.0199C100.66 13.7264 100.66 14.5196 100.66 15.4058C100.66 16.292 100.703 17.1162 100.752 17.8846C100.781 18.539 100.864 19.1898 101 19.8305C101.117 20.3511 101.29 20.6113 101.525 20.6113H97.4136C97.6485 20.6113 97.8278 20.3573 97.9453 19.8429C98.0774 19.2183 98.1601 18.5842 98.1927 17.9466C98.2421 17.1906 98.273 16.3726 98.2792 15.4678C98.2854 14.563 98.2792 13.807 98.2792 13.1005V7.44258L98.2483 7.56032V5.22403C98.2483 4.33992 98.2235 3.51364 98.1741 2.74521C98.1416 2.09323 98.0589 1.44473 97.9268 0.805523C97.8093 0.28497 97.63 0.024687 97.395 0.024687H105.303C106.373 0.00372097 107.44 0.13094 108.475 0.402718C109.257 0.612207 109.995 0.962923 110.651 1.43764C111.164 1.80691 111.581 2.29388 111.867 2.85777C112.153 3.42167 112.3 4.04606 112.296 4.67869C112.307 5.32544 112.156 5.96466 111.857 6.53781C111.564 7.06345 111.186 7.53672 110.738 7.93835C110.293 8.33776 109.811 8.69267 109.297 8.99805C108.79 9.3017 108.308 9.58057 107.857 9.83465C107.461 10.0523 107.088 10.3098 106.744 10.6031C106.61 10.7028 106.501 10.8316 106.424 10.9796C106.346 11.1277 106.304 11.2913 106.299 11.4583C106.355 11.9252 106.527 12.3706 106.799 12.7535C107.19 13.3806 107.622 13.981 108.092 14.5506C108.623 15.1703 109.217 15.8582 109.885 16.5399C110.552 17.2216 111.226 17.8413 111.913 18.399C112.541 18.9343 113.204 19.427 113.897 19.8739C114.392 20.2139 114.946 20.4577 115.53 20.5928H110.769C110.022 20.0027 109.329 19.3474 108.698 18.6345C108.068 17.9338 107.488 17.1904 106.96 16.4097C106.48 15.7232 106.066 14.9928 105.724 14.2284C105.453 13.6553 105.299 13.0337 105.272 12.4002C105.278 12.119 105.343 11.8423 105.465 11.5889C105.587 11.3355 105.761 11.1112 105.977 10.9315L107.517 9.5186C108.1 8.97893 108.615 8.36907 109.05 7.70286C109.537 6.90217 109.775 5.97485 109.736 5.03813C109.804 3.76899 109.401 2.5195 108.605 1.53059C108.178 1.08256 107.659 0.734223 107.083 0.510365C106.507 0.286506 105.889 0.192627 105.272 0.235404H100.66V13.0199Z" fill="#806145"/>
<path d="M130.783 20.6178H117.057C117.292 20.6178 117.471 20.3575 117.589 19.8369C117.721 19.1957 117.804 18.5451 117.836 17.8911C117.885 17.1164 117.91 16.286 117.91 15.4122V5.22425C117.91 4.34014 117.885 3.51386 117.836 2.74542C117.803 2.09344 117.721 1.44495 117.589 0.805739C117.471 0.285185 117.292 0.0249023 117.057 0.0249023H130.041V1.40686C128.479 0.663207 126.255 0.289319 123.37 0.285188H120.278V9.65515H122.3C123.185 9.65778 124.069 9.60398 124.946 9.49404C125.617 9.42657 126.272 9.25295 126.888 8.97967V10.5971C126.273 10.3208 125.617 10.147 124.946 10.0827C124.069 9.9698 123.185 9.91597 122.3 9.92162H120.303V17.7237C120.263 18.4044 120.462 19.0776 120.866 19.6262C121.115 19.8842 121.417 20.0849 121.751 20.2144C122.085 20.3439 122.443 20.399 122.801 20.3761H124.124C125.403 20.3907 126.682 20.2974 127.945 20.0972C128.93 19.9385 129.889 19.6467 130.795 19.2296L130.783 20.6178Z" fill="#806145"/>
<path d="M137.251 18.238C137.251 18.554 137.251 18.8577 137.282 19.1055C137.289 19.3392 137.355 19.5672 137.473 19.7686C137.59 19.9562 137.763 20.1016 137.968 20.1838C138.285 20.2988 138.62 20.3575 138.957 20.3574H141.863C142.585 20.3812 143.305 20.2609 143.98 20.0034C144.655 19.7459 145.272 19.3565 145.796 18.8577C146.858 17.8226 147.657 16.5476 148.127 15.1394C148.656 13.5837 148.92 11.9494 148.906 10.3057C148.921 8.66286 148.654 7.02963 148.114 5.4782C147.635 4.07032 146.83 2.79618 145.765 1.75996C145.243 1.26639 144.629 0.880932 143.959 0.6257C143.288 0.370469 142.574 0.250498 141.857 0.272671H137.269L137.251 18.238ZM141.838 0.00618284C143.279 -0.0255873 144.707 0.275532 146.012 0.886175C147.161 1.43849 148.178 2.23335 148.992 3.21628C149.793 4.19133 150.402 5.31014 150.785 6.5131C151.577 8.96872 151.577 11.6117 150.785 14.0673C150.408 15.271 149.806 16.3919 149.011 17.3704C148.15 18.4237 147.06 19.2649 145.824 19.829C144.588 20.3931 143.239 20.665 141.882 20.6238H134.048C134.283 20.6238 134.462 20.3636 134.58 19.843C134.712 19.2018 134.795 18.5512 134.827 17.8971C134.876 17.1225 134.901 16.2921 134.901 15.4183V5.22412C134.901 4.34001 134.876 3.51373 134.827 2.74529C134.794 2.09331 134.712 1.44482 134.58 0.80561C134.462 0.285056 134.283 0.0247733 134.048 0.0247733L141.838 0.00618284Z" fill="#806145"/>
</g>
<defs>
<clipPath id="clip0_156_85">
<rect width="151" height="60" fill="white"/>
</clipPath>
</defs>
</svg>
