<svg width="92" height="49" viewBox="0 0 92 49" fill="none" xmlns="http://www.w3.org/2000/svg">
<path d="M77.3827 28.6208L91.1288 29.1383C92.8228 29.9079 90.629 30.3457 89.8374 30.4165C73.4508 31.9202 55.211 30.7615 38.7139 30.4165C27.2411 30.1732 15.1579 30.3723 3.74259 29.669C2.88899 29.616 0.279522 29.5938 0.540469 28.5014L74.8086 28.6297C74.6096 24.5651 74.0169 20.8986 72.208 17.2232C60.1558 -7.27927 24.0478 0.527025 13.9416 22.6412L12.3671 27.064C13.7205 17.5549 21.9027 9.00116 30.0894 4.56949C42.1327 -1.94091 58.0195 -1.95418 68.5193 7.52394C74.0257 12.5085 78.338 21.0843 77.3827 28.6208Z" fill="#B69F8D"/>
<path d="M42.1193 45.1445C48.4263 44.9764 56.1751 44.6403 62.3449 45.3258C65.5073 45.6797 64.95 48.298 62.0928 48.3599C56.4228 48.4882 50.5581 47.7274 44.8836 47.6301C38.7138 46.9579 31.3232 48.5722 25.3436 47.8955C23.2339 47.6567 23.1056 46.6527 25.149 46.1617C29.3197 45.1622 37.555 45.2683 42.1193 45.1445Z" fill="#B69F8D"/>
<path d="M73.5259 37.8734C73.7249 38.5501 72.8492 38.6032 72.3716 38.6474C67.0332 39.0897 60.8235 38.8022 55.3967 38.8906C46.7191 39.0366 38.1477 38.8155 29.4613 38.6341C26.2459 38.5678 22.544 38.9305 19.4215 38.6341C18.7846 38.5766 17.8027 38.528 17.502 37.8557C20.0583 37.0596 22.7253 37.4532 25.3525 37.3471C34.291 36.9977 43.4065 36.9844 52.3317 37.0906C59.4082 37.1967 66.4715 37.3825 73.5259 37.8734Z" fill="#B69F8D"/>
</svg>
