<svg width="39" height="30" viewBox="0 0 39 30" fill="none" xmlns="http://www.w3.org/2000/svg">
<g clip-path="url(#clip0_156_900)">
<path d="M30.5897 29.9923C28.6895 29.9308 26.4359 28.9556 24.7257 26.836C23.073 24.7924 22.089 22.2808 21.9095 19.648C21.4725 14.2723 23.3271 9.77598 26.8007 5.85175C28.9624 3.46645 31.5585 1.52401 34.4472 0.130505C34.8956 -0.0960401 35.1388 -0.0307436 35.3973 0.391629C35.7773 1.02135 36.2258 1.6165 36.6438 2.22318C37.0619 2.82986 37.0581 2.82219 36.4576 3.16776C34.1302 4.45947 32.0984 6.23229 30.4947 8.37063C29.1864 10.192 28.3136 12.2948 27.9446 14.5142C27.8876 14.8406 27.9028 15.0134 28.3247 14.8483C32.0681 13.3661 38.0956 15.2975 38.9279 21.1417C39.2433 23.3802 38.5478 25.3654 37.2823 27.1701C35.8229 29.2397 33.7631 30.0115 30.5897 29.9923Z" fill="white"/>
<path d="M6.09217 14.9481C8.83608 13.9613 11.4128 14.2339 13.807 15.8159C15.2797 16.8124 16.3585 18.3005 16.8546 20.0196C17.3507 21.7388 17.2324 23.5795 16.5206 25.2195C15.3804 27.8574 13.5258 29.5814 10.6451 29.9155C7.60474 30.2649 5.01285 29.3395 2.99862 26.9627C0.984397 24.5859 0.087498 21.7867 0.00768895 18.6842C-0.121526 13.7271 1.69128 9.54174 4.90264 5.89781C7.08042 3.48057 9.70343 1.51512 12.6251 0.111301C13.0432 -0.0998857 13.2788 -0.0614863 13.5334 0.353207C13.9477 1.02516 14.4037 1.67409 14.875 2.30765C15.1562 2.69163 15.1372 2.86825 14.7001 3.11784C12.3157 4.40932 10.2402 6.21274 8.61946 8.40134C7.35141 10.1871 6.50152 12.2405 6.13398 14.4067C6.11118 14.5258 6.10357 14.6448 6.09217 14.7677C6.08824 14.8277 6.08824 14.888 6.09217 14.9481Z" fill="white"/>
</g>
<defs>
<clipPath id="clip0_156_900">
<rect width="39" height="30" fill="white"/>
</clipPath>
</defs>
</svg>
