<svg width="220" height="7" viewBox="0 0 220 7" fill="none" xmlns="http://www.w3.org/2000/svg">
<path d="M0.83531 6.84593C15.0508 6.07995 29.2702 5.44164 43.4933 4.93099C57.7165 4.42033 71.9358 3.97355 86.1514 3.59056C100.375 3.24587 114.598 3.0097 128.821 2.88204C143.044 2.75437 157.21 2.75437 171.319 2.88204C185.542 2.9714 199.765 3.16927 213.988 3.47567L219.242 3.59056C219.451 3.54995 219.643 3.38216 219.783 3.11913C219.923 2.85609 220 2.51617 220 2.16393C220 1.81169 219.923 1.47171 219.783 1.20868C219.643 0.945645 219.451 0.777911 219.242 0.737306C205.011 0.418148 190.788 0.201069 176.573 0.0861726C162.357 -0.0287242 148.134 -0.0287242 133.903 0.0861726C119.672 0.188303 105.449 0.392578 91.2338 0.69897C77.0183 1.00536 62.8522 1.42666 48.7357 1.96284C34.5125 2.49903 20.2932 3.13734 6.07762 3.87779L0.83531 4.14591C-0.249701 4.14591 -0.306806 7.05661 0.83531 6.99916" fill="#B69F8D"/>
</svg>
