<svg width="262" height="5" viewBox="0 0 262 5" fill="none" xmlns="http://www.w3.org/2000/svg">
<path d="M0.510549 4.91071C9.19923 4.46681 17.8902 4.09689 26.5836 3.80095C35.2769 3.50502 139.303 2.30278 147.991 2.08082C156.685 1.88107 165.378 1.7442 174.071 1.67022C182.765 1.59623 223.622 1.59623 232.246 1.67022C240.939 1.722 249.632 1.83668 258.326 2.01424L261.537 2.08082C261.664 2.05729 261.782 1.96005 261.867 1.80761C261.953 1.65518 262 1.45819 262 1.25405C262 1.04992 261.953 0.852895 261.867 0.70046C261.782 0.548025 261.664 0.450819 261.537 0.427287C252.839 0.242327 244.145 0.116524 235.457 0.0499382C226.768 -0.0166475 185.876 -0.0166453 177.178 0.0499404C168.48 0.109128 159.786 0.22751 151.098 0.405072C142.409 0.582634 38.4159 1.7701 29.7877 2.08083C21.0944 2.39157 12.4034 2.76149 3.7147 3.19059L0.510549 3.34598C-0.152619 3.34598 -0.187523 5.03281 0.510549 4.99951" fill="#806145"/>
</svg>
