<svg width="12" height="12" viewBox="0 0 12 12" fill="none" xmlns="http://www.w3.org/2000/svg">
<path d="M11.6175 0C11.5148 0.152522 11.3968 0.294649 11.2653 0.424267C9.92371 1.9513 8.58016 3.47668 7.23462 5.00041C7.17382 5.06892 7.19324 5.11102 7.23462 5.17128L10.8515 10.3112L11.9493 11.8737C11.9713 11.9043 12.0152 11.9364 11.9949 11.9752C11.9747 12.014 11.9223 11.995 11.8851 11.995C10.7755 11.995 9.66587 11.995 8.55623 11.995C8.51513 11.9975 8.47414 11.9886 8.43798 11.9693C8.40183 11.9501 8.37198 11.9212 8.35186 11.8861C7.31654 10.4097 6.28065 8.93328 5.24419 7.45687C5.17663 7.36112 5.14792 7.3702 5.0753 7.45192C3.77312 8.93768 2.46981 10.4196 1.16538 11.8976C1.14042 11.9297 1.10785 11.9553 1.07047 11.9723C1.03309 11.9893 0.992042 11.9971 0.95088 11.995C0.671359 11.9901 0.391838 11.995 0.112317 11.995C0.0836045 11.995 0.0430697 12.0099 0.0278691 11.9728C0.0126686 11.9356 0.0489821 11.9249 0.0658716 11.9051L2.4304 9.21667C3.15046 8.39785 3.87164 7.57903 4.59395 6.76022C4.60885 6.74813 4.62104 6.73317 4.62977 6.71628C4.6385 6.69939 4.64358 6.68092 4.64469 6.66203C4.6458 6.64313 4.64292 6.62422 4.63622 6.60646C4.62952 6.5887 4.61916 6.57248 4.60577 6.55881C3.19831 4.55799 1.79085 2.55551 0.38339 0.551382C0.254185 0.368138 0.130049 0.183244 0 0H3.61689C3.64053 0.0579214 3.67361 0.111719 3.71485 0.159306L6.60802 4.27487C6.68656 4.3863 6.68571 4.38547 6.77692 4.28395C7.49134 3.47173 8.20633 2.65924 8.92189 1.84647C9.46235 1.23181 10.0023 0.616316 10.5416 0H11.6175ZM9.72245 11.2315C9.94539 11.2315 10.1692 11.2315 10.393 11.2315C10.4301 11.2315 10.4825 11.2522 10.5036 11.2142C10.5247 11.1762 10.4766 11.1449 10.4555 11.1151C8.01999 7.70945 5.58508 4.30403 3.15074 0.898886C3.12904 0.864653 3.09807 0.836966 3.06124 0.818899C3.02443 0.800831 2.9832 0.793089 2.94216 0.796533C2.51992 0.796533 2.08839 0.796533 1.66108 0.796533C1.61464 0.796533 1.54792 0.775071 1.52512 0.813041C1.50232 0.85101 1.55806 0.901362 1.58593 0.940157C3.2107 3.21392 4.83631 5.48714 6.46278 7.7598C7.26728 8.88568 8.07178 10.0116 8.87629 11.1374C8.89538 11.1688 8.92305 11.1943 8.95617 11.211C8.9893 11.2278 9.02656 11.2352 9.06376 11.2324C9.28417 11.2282 9.50289 11.2315 9.72245 11.2315Z" fill="#806145"/>
</svg>
